# xmcd CD database file
#
# Track frame offsets:
#	150
#	39240
#	87148
#	122245
#	186545
#	227615
#	250830
#
# Disc length: 3550 seconds
#
# Revision: 0
# Processed by: cddbd v1.5.2PL0 Copyright (c) Steve Scherf et al.
# Submitted via: CDex 1.51
#
DISCID=540ddc07
DTITLE=Orphy Robinson - When Tomorrow Comes
DYEAR=1992
DGENRE=Jazz
TTITLE0=All at sixes and sevens
TTITLE1=The bass of bad intentions
TTITLE2=Jigsaw
TTITLE3=Let's see what tomorrow brings
TTITLE4=Bach to 1st bass
TTITLE5=Bad means beautfiful
TTITLE6=Jigsaw (reprise)
EXTD=YEAR: 1992
EXTT0=
EXTT1=
EXTT2=
EXTT3=
EXTT4=
EXTT5=
EXTT6=
PLAYORDER=
